<?xml version="1.0" standalone="no"?><!DOCTYPE svg PUBLIC "-//W3C//DTD SVG 1.1//EN" "http://www.w3.org/Graphics/SVG/1.1/DTD/svg11.dtd"><svg t="1782365716484" class="icon" viewBox="0 0 1024 1024" version="1.1" xmlns="http://www.w3.org/2000/svg" p-id="4724" width="16" height="16" xmlns:xlink="http://www.w3.org/1999/xlink"><path d="M781.511654 417.223038l-56.391241 56.39124-42.503845-42.503845 56.39124-56.391241c58.615628-58.615628 58.615628-153.963717 0-212.519227s-153.963717-58.615628-212.519227 0L346.914343 341.834322c-58.615628 58.615628-58.615628 153.963717 0 212.519227s153.963717 58.615628 212.519227 0l42.503846 42.503845c-41.060999 41.060999-94.86714 61.501321-148.793519 61.501321s-107.732519-20.50044-148.7334-61.501321a210.655551 210.655551 0 0 1 0-297.526918l179.574239-179.574238a210.535314 210.535314 0 0 1 297.526918 0 210.475195 210.475195 0 0 1 0 297.4668zM364.228498 482.992779l-7.815418 7.755298 42.383609 42.624083 7.875536-7.815417c58.615628-58.615628 153.963717-58.615628 212.519227 0s58.615628 153.963717 0 212.519227L437.452944 919.934715c-58.615628 58.615628-153.963717 58.615628-212.519227 0s-58.615628-153.963717 0-212.519227l63.605472-63.665591-42.503846-42.503845-63.605472 63.66559a210.655551 210.655551 0 0 0 0 297.526918c41.060999 41.060999 94.86714 61.501321 148.793519 61.501321s107.732519-20.50044 148.793518-61.501321l181.738508-181.798626a210.655551 210.655551 0 0 0 0-297.526918 210.595432 210.595432 0 0 0-297.526918-0.120237z" p-id="4725" fill="#0e932e"></path></svg>