<?xml version="1.0" standalone="no"?><!DOCTYPE svg PUBLIC "-//W3C//DTD SVG 1.1//EN" "http://www.w3.org/Graphics/SVG/1.1/DTD/svg11.dtd"><svg t="1782365693422" class="icon" viewBox="0 0 1024 1024" version="1.1" xmlns="http://www.w3.org/2000/svg" p-id="3328" width="16" height="16" xmlns:xlink="http://www.w3.org/1999/xlink"><path d="M129.262565 308.96759l84.291216-155.535932C278.846407 54.350399 409.672147 27.47581 506.408643 91.565993l-33.12729 50.081729a150.605918 150.605918 0 0 0-208.263035 42.626585L180.727102 339.81024c-46.955378 71.425082-27.896665 164.854861 41.303898 210.487552 68.719587 45.211837 144.894317 32.886801 199.184594-32.345702l46.173791 38.538281c-44.610615 53.628934-101.846876 81.28511-161.007046 81.28511-39.379991 0-79.541569-12.264913-117.478628-37.275716a210.667919 210.667919 0 0 1-59.641146-291.532175z m114.652888 174.053547l-7.815876 7.755754 42.386097 42.626585 7.875998-7.815876c58.61907-58.61907 153.972757-58.61907 212.531705 0s58.61907 153.972757 0 212.531705l-181.749178 181.8093c-58.61907 58.61907-153.972757 58.61907-212.531705 0s-58.61907-153.972757 0-212.531705l63.609206-63.669328L125.715359 601.221231l-63.609206 63.72945a210.667919 210.667919 0 0 0 0 297.544387c41.06341 41.06341 94.87271 61.504932 148.802255 61.504932s107.738845-20.501644 148.802254-61.504932l181.749178-181.8093a210.667919 210.667919 0 0 0 0-297.544387 210.607797 210.607797 0 0 0-297.544387-0.120244zM660.080789 420.854861h244.937529V360.732738h-244.937529v60.122123z m-28.137153 80.9845l117.298262 67.757633 30.061061-52.005637-117.298262-67.757632-30.061061 52.005636z m15.331141-432.338187L552.281822 234.055425l52.005637 30.061062 94.992954-164.494129-52.005636-30.121184z m307.644904 94.331611l-30.061062-52.005636-300.129638 173.271959 30.061061 52.005636 300.129639-173.271959z" p-id="3329"></path></svg>